<mxfile host="app.diagrams.net" modified="2020-08-26T18:42:37.041Z" agent="5.0 (Windows NT 10.0; Win64; x64) AppleWebKit/537.36 (KHTML, like Gecko) Chrome/84.0.4147.135 Safari/537.36" etag="h8GYm2VrfyqWMOedrxIX" version="13.6.2" type="github">
  <diagram id="O3AWZh2ZpCnyR30ulpSp" name="Page-1">
    <mxGraphModel dx="868" dy="401" grid="1" gridSize="10" guides="1" tooltips="1" connect="1" arrows="1" fold="1" page="1" pageScale="1" pageWidth="850" pageHeight="1100" math="0" shadow="0">
      <root>
        <mxCell id="0" />
        <mxCell id="1" parent="0" />
        <mxCell id="gKbziaEj2PkE8vArs9gG-4" value="" style="edgeStyle=orthogonalEdgeStyle;rounded=0;orthogonalLoop=1;jettySize=auto;html=1;" edge="1" parent="1" source="gKbziaEj2PkE8vArs9gG-1" target="gKbziaEj2PkE8vArs9gG-3">
          <mxGeometry relative="1" as="geometry" />
        </mxCell>
        <mxCell id="gKbziaEj2PkE8vArs9gG-13" value="I/C" style="edgeLabel;html=1;align=center;verticalAlign=middle;resizable=0;points=[];labelBackgroundColor=#FF0000;" vertex="1" connectable="0" parent="gKbziaEj2PkE8vArs9gG-4">
          <mxGeometry x="0.0083" relative="1" as="geometry">
            <mxPoint x="72" as="offset" />
          </mxGeometry>
        </mxCell>
        <mxCell id="gKbziaEj2PkE8vArs9gG-17" style="edgeStyle=orthogonalEdgeStyle;rounded=0;orthogonalLoop=1;jettySize=auto;html=1;exitX=1;exitY=0.5;exitDx=0;exitDy=0;entryX=0.5;entryY=0;entryDx=0;entryDy=0;startArrow=none;startFill=0;" edge="1" parent="1" source="gKbziaEj2PkE8vArs9gG-1" target="gKbziaEj2PkE8vArs9gG-9">
          <mxGeometry relative="1" as="geometry" />
        </mxCell>
        <mxCell id="gKbziaEj2PkE8vArs9gG-18" value="I/C" style="edgeLabel;html=1;align=center;verticalAlign=middle;resizable=0;points=[];labelBackgroundColor=#FF0000;" vertex="1" connectable="0" parent="gKbziaEj2PkE8vArs9gG-17">
          <mxGeometry x="-0.2311" y="4" relative="1" as="geometry">
            <mxPoint y="2" as="offset" />
          </mxGeometry>
        </mxCell>
        <mxCell id="gKbziaEj2PkE8vArs9gG-19" value="&lt;span style=&quot;background-color: rgb(0 , 255 , 0)&quot;&gt;I/C&lt;/span&gt;" style="edgeStyle=orthogonalEdgeStyle;rounded=0;orthogonalLoop=1;jettySize=auto;html=1;exitX=0.5;exitY=1;exitDx=0;exitDy=0;entryX=0.5;entryY=0;entryDx=0;entryDy=0;startArrow=none;startFill=0;" edge="1" parent="1" source="gKbziaEj2PkE8vArs9gG-1" target="gKbziaEj2PkE8vArs9gG-15">
          <mxGeometry relative="1" as="geometry" />
        </mxCell>
        <mxCell id="gKbziaEj2PkE8vArs9gG-1" value="AAI/MRSS" style="rounded=0;whiteSpace=wrap;html=1;fontStyle=1;labelBackgroundColor=#99CCFF;fillColor=#dae8fc;strokeColor=#6c8ebf;" vertex="1" parent="1">
          <mxGeometry x="360" y="80" width="120" height="60" as="geometry" />
        </mxCell>
        <mxCell id="gKbziaEj2PkE8vArs9gG-6" value="TieLine" style="edgeStyle=orthogonalEdgeStyle;rounded=0;orthogonalLoop=1;jettySize=auto;html=1;startArrow=classic;startFill=1;" edge="1" parent="1" target="gKbziaEj2PkE8vArs9gG-5">
          <mxGeometry relative="1" as="geometry">
            <mxPoint x="180" y="350" as="sourcePoint" />
          </mxGeometry>
        </mxCell>
        <mxCell id="gKbziaEj2PkE8vArs9gG-3" value="B1A" style="rounded=0;whiteSpace=wrap;html=1;fontStyle=1;labelBackgroundColor=#99CCFF;fillColor=#f8cecc;strokeColor=#b85450;" vertex="1" parent="1">
          <mxGeometry x="60" y="320" width="120" height="60" as="geometry" />
        </mxCell>
        <mxCell id="gKbziaEj2PkE8vArs9gG-8" value="TieLine" style="edgeStyle=orthogonalEdgeStyle;rounded=0;orthogonalLoop=1;jettySize=auto;html=1;startArrow=classic;startFill=1;" edge="1" parent="1" source="gKbziaEj2PkE8vArs9gG-5" target="gKbziaEj2PkE8vArs9gG-7">
          <mxGeometry relative="1" as="geometry" />
        </mxCell>
        <mxCell id="gKbziaEj2PkE8vArs9gG-16" value="" style="edgeStyle=orthogonalEdgeStyle;rounded=0;orthogonalLoop=1;jettySize=auto;html=1;startArrow=classic;startFill=1;" edge="1" parent="1" source="gKbziaEj2PkE8vArs9gG-5" target="gKbziaEj2PkE8vArs9gG-15">
          <mxGeometry relative="1" as="geometry" />
        </mxCell>
        <mxCell id="gKbziaEj2PkE8vArs9gG-5" value="B1D" style="rounded=0;whiteSpace=wrap;html=1;fontStyle=1;labelBackgroundColor=#99CCFF;fillColor=#f8cecc;strokeColor=#b85450;" vertex="1" parent="1">
          <mxGeometry x="260" y="320" width="120" height="60" as="geometry" />
        </mxCell>
        <mxCell id="gKbziaEj2PkE8vArs9gG-10" value="TieLine" style="edgeStyle=orthogonalEdgeStyle;rounded=0;orthogonalLoop=1;jettySize=auto;html=1;startArrow=classic;startFill=1;" edge="1" parent="1" source="gKbziaEj2PkE8vArs9gG-7">
          <mxGeometry relative="1" as="geometry">
            <mxPoint x="660" y="350" as="targetPoint" />
          </mxGeometry>
        </mxCell>
        <mxCell id="gKbziaEj2PkE8vArs9gG-7" value="B1C" style="rounded=0;whiteSpace=wrap;html=1;fontStyle=1;labelBackgroundColor=#99CCFF;fillColor=#f8cecc;strokeColor=#b85450;" vertex="1" parent="1">
          <mxGeometry x="460" y="320" width="120" height="60" as="geometry" />
        </mxCell>
        <mxCell id="gKbziaEj2PkE8vArs9gG-9" value="B1B" style="rounded=0;whiteSpace=wrap;html=1;fontStyle=1;labelBackgroundColor=#99CCFF;fillColor=#f8cecc;strokeColor=#b85450;" vertex="1" parent="1">
          <mxGeometry x="660" y="320" width="120" height="60" as="geometry" />
        </mxCell>
        <mxCell id="gKbziaEj2PkE8vArs9gG-15" value="AS-2" style="rounded=0;whiteSpace=wrap;html=1;fontStyle=1;labelBackgroundColor=#99CCFF;fillColor=#f8cecc;strokeColor=#b85450;" vertex="1" parent="1">
          <mxGeometry x="260" y="210" width="120" height="60" as="geometry" />
        </mxCell>
        <mxCell id="gKbziaEj2PkE8vArs9gG-23" value="TieLine" style="edgeStyle=orthogonalEdgeStyle;rounded=0;orthogonalLoop=1;jettySize=auto;html=1;startArrow=classic;startFill=1;" edge="1" parent="1" source="gKbziaEj2PkE8vArs9gG-20" target="gKbziaEj2PkE8vArs9gG-22">
          <mxGeometry relative="1" as="geometry" />
        </mxCell>
        <mxCell id="gKbziaEj2PkE8vArs9gG-27" value="I/C" style="edgeStyle=orthogonalEdgeStyle;rounded=0;orthogonalLoop=1;jettySize=auto;html=1;startArrow=classic;startFill=1;endArrow=none;endFill=0;" edge="1" parent="1" source="gKbziaEj2PkE8vArs9gG-20" target="gKbziaEj2PkE8vArs9gG-26">
          <mxGeometry relative="1" as="geometry" />
        </mxCell>
        <mxCell id="gKbziaEj2PkE8vArs9gG-20" value="E-block" style="rounded=0;whiteSpace=wrap;html=1;fontStyle=1;labelBackgroundColor=#99CCFF;fillColor=#f8cecc;strokeColor=#b85450;" vertex="1" parent="1">
          <mxGeometry x="270" y="530" width="120" height="60" as="geometry" />
        </mxCell>
        <mxCell id="gKbziaEj2PkE8vArs9gG-25" value="I/C" style="edgeStyle=orthogonalEdgeStyle;rounded=0;orthogonalLoop=1;jettySize=auto;html=1;startArrow=classic;startFill=1;endArrow=none;endFill=0;" edge="1" parent="1" source="gKbziaEj2PkE8vArs9gG-22" target="gKbziaEj2PkE8vArs9gG-24">
          <mxGeometry relative="1" as="geometry" />
        </mxCell>
        <mxCell id="gKbziaEj2PkE8vArs9gG-22" value="SFS" style="rounded=0;whiteSpace=wrap;html=1;fontStyle=1;labelBackgroundColor=#99CCFF;fillColor=#f8cecc;strokeColor=#b85450;" vertex="1" parent="1">
          <mxGeometry x="470" y="530" width="120" height="60" as="geometry" />
        </mxCell>
        <mxCell id="gKbziaEj2PkE8vArs9gG-24" value="AAIGSD" style="rounded=0;whiteSpace=wrap;html=1;fontStyle=1;labelBackgroundColor=#99CCFF;fillColor=#dae8fc;strokeColor=#6c8ebf;" vertex="1" parent="1">
          <mxGeometry x="670" y="530" width="120" height="60" as="geometry" />
        </mxCell>
        <mxCell id="gKbziaEj2PkE8vArs9gG-26" value="STP" style="rounded=0;whiteSpace=wrap;html=1;fontStyle=1;labelBackgroundColor=#99CCFF;fillColor=#dae8fc;strokeColor=#6c8ebf;" vertex="1" parent="1">
          <mxGeometry x="70" y="530" width="120" height="60" as="geometry" />
        </mxCell>
        <mxCell id="gKbziaEj2PkE8vArs9gG-31" value="TieLine" style="edgeStyle=orthogonalEdgeStyle;rounded=0;orthogonalLoop=1;jettySize=auto;html=1;startArrow=classic;startFill=1;endArrow=classic;endFill=1;" edge="1" parent="1" source="gKbziaEj2PkE8vArs9gG-28" target="gKbziaEj2PkE8vArs9gG-30">
          <mxGeometry relative="1" as="geometry" />
        </mxCell>
        <mxCell id="gKbziaEj2PkE8vArs9gG-38" value="&lt;span style=&quot;background-color: rgb(255 , 0 , 0)&quot;&gt;I/C&lt;/span&gt;" style="edgeStyle=orthogonalEdgeStyle;rounded=0;orthogonalLoop=1;jettySize=auto;html=1;startArrow=classic;startFill=1;endArrow=none;endFill=0;" edge="1" parent="1" source="gKbziaEj2PkE8vArs9gG-28" target="gKbziaEj2PkE8vArs9gG-37">
          <mxGeometry relative="1" as="geometry" />
        </mxCell>
        <mxCell id="gKbziaEj2PkE8vArs9gG-28" value="ESU-05" style="rounded=0;whiteSpace=wrap;html=1;fontStyle=1;labelBackgroundColor=#99CCFF;fillColor=#f8cecc;strokeColor=#b85450;" vertex="1" parent="1">
          <mxGeometry x="265" y="820" width="120" height="60" as="geometry" />
        </mxCell>
        <mxCell id="gKbziaEj2PkE8vArs9gG-36" value="&lt;span style=&quot;background-color: rgb(255 , 0 , 0)&quot;&gt;I/C&lt;/span&gt;" style="edgeStyle=orthogonalEdgeStyle;rounded=0;orthogonalLoop=1;jettySize=auto;html=1;startArrow=classic;startFill=1;endArrow=none;endFill=0;" edge="1" parent="1" source="gKbziaEj2PkE8vArs9gG-30" target="gKbziaEj2PkE8vArs9gG-35">
          <mxGeometry relative="1" as="geometry" />
        </mxCell>
        <mxCell id="gKbziaEj2PkE8vArs9gG-30" value="ESU-06" style="rounded=0;whiteSpace=wrap;html=1;fontStyle=1;labelBackgroundColor=#99CCFF;fillColor=#f8cecc;strokeColor=#b85450;" vertex="1" parent="1">
          <mxGeometry x="465" y="820" width="120" height="60" as="geometry" />
        </mxCell>
        <mxCell id="gKbziaEj2PkE8vArs9gG-35" value="AAI/MRSS" style="rounded=0;whiteSpace=wrap;html=1;fontStyle=1;labelBackgroundColor=#99CCFF;fillColor=#dae8fc;strokeColor=#6c8ebf;" vertex="1" parent="1">
          <mxGeometry x="465" y="680" width="120" height="60" as="geometry" />
        </mxCell>
        <mxCell id="gKbziaEj2PkE8vArs9gG-41" style="edgeStyle=orthogonalEdgeStyle;rounded=0;orthogonalLoop=1;jettySize=auto;html=1;exitX=0.5;exitY=1;exitDx=0;exitDy=0;entryX=0;entryY=0.5;entryDx=0;entryDy=0;startArrow=none;startFill=0;endArrow=classic;endFill=1;" edge="1" parent="1" source="gKbziaEj2PkE8vArs9gG-37" target="gKbziaEj2PkE8vArs9gG-39">
          <mxGeometry relative="1" as="geometry" />
        </mxCell>
        <mxCell id="gKbziaEj2PkE8vArs9gG-47" value="I/C" style="edgeLabel;html=1;align=center;verticalAlign=middle;resizable=0;points=[];labelBackgroundColor=#FF0000;" vertex="1" connectable="0" parent="gKbziaEj2PkE8vArs9gG-41">
          <mxGeometry x="-0.2824" y="11" relative="1" as="geometry">
            <mxPoint as="offset" />
          </mxGeometry>
        </mxCell>
        <mxCell id="gKbziaEj2PkE8vArs9gG-37" value="SSB" style="rounded=0;whiteSpace=wrap;html=1;fontStyle=1;labelBackgroundColor=#99CCFF;fillColor=#dae8fc;strokeColor=#6c8ebf;" vertex="1" parent="1">
          <mxGeometry x="80" y="820" width="120" height="60" as="geometry" />
        </mxCell>
        <mxCell id="gKbziaEj2PkE8vArs9gG-45" value="" style="edgeStyle=orthogonalEdgeStyle;rounded=0;orthogonalLoop=1;jettySize=auto;html=1;startArrow=classic;startFill=1;endArrow=none;endFill=0;" edge="1" parent="1" source="gKbziaEj2PkE8vArs9gG-39" target="gKbziaEj2PkE8vArs9gG-44">
          <mxGeometry relative="1" as="geometry" />
        </mxCell>
        <mxCell id="gKbziaEj2PkE8vArs9gG-46" value="I/C" style="edgeLabel;html=1;align=center;verticalAlign=middle;resizable=0;points=[];labelBackgroundColor=#FF0000;" vertex="1" connectable="0" parent="gKbziaEj2PkE8vArs9gG-45">
          <mxGeometry x="0.1636" y="1" relative="1" as="geometry">
            <mxPoint as="offset" />
          </mxGeometry>
        </mxCell>
        <mxCell id="gKbziaEj2PkE8vArs9gG-39" value="BOAC" style="rounded=0;whiteSpace=wrap;html=1;fontStyle=1;labelBackgroundColor=#99CCFF;fillColor=#f8cecc;strokeColor=#b85450;" vertex="1" parent="1">
          <mxGeometry x="360" y="980" width="120" height="60" as="geometry" />
        </mxCell>
        <mxCell id="gKbziaEj2PkE8vArs9gG-44" value="MSB" style="rounded=0;whiteSpace=wrap;html=1;fontStyle=1;labelBackgroundColor=#99CCFF;fillColor=#dae8fc;strokeColor=#6c8ebf;" vertex="1" parent="1">
          <mxGeometry x="680" y="880" width="120" height="60" as="geometry" />
        </mxCell>
        <mxCell id="gKbziaEj2PkE8vArs9gG-48" value="&lt;span style=&quot;font-size: 19px ; background-color: rgb(255 , 255 , 255)&quot;&gt;Ring Main Unit&lt;/span&gt;" style="text;html=1;strokeColor=none;fillColor=none;align=center;verticalAlign=middle;whiteSpace=wrap;rounded=0;labelBackgroundColor=#FF0000;fontStyle=1;fontSize=19;" vertex="1" parent="1">
          <mxGeometry x="307" y="20" width="260" height="40" as="geometry" />
        </mxCell>
      </root>
    </mxGraphModel>
  </diagram>
</mxfile>
